# xmcd
#
# Track frame offsets: 
#        182
#        37447
#        54055
#        90992
#        130627
#        164460
#        189895
#        206225
#        238222
#        263707
#        308882
#        331905
#
# Disc length: 4709 seconds
#
# Revision: 3
# Processed by: cddbd v1.5.2PL0 Copyright (c) Steve Scherf et al.
# Submitted via: ExactAudioCopyFreeDBPlugin 1.0
#
DISCID=a112630c
DTITLE=Various Artist - Smooth Grooves:  Live [Rhino]
DYEAR=2001
DGENRE=SMB
TTITLE0=Earth Wind and Fire - Reasons (live)
TTITLE1=Maze featuring Frankie Beverly - Happy Feelings (live)
TTITLE2=Average White Band - If I Ever Lose This Heaven (live)
TTITLE3=Billy Paul - Me and Mrs. Jones (live)
TTITLE4=Natalie Cole - I'm Catching Hell (live)
TTITLE5=The Dramatics - In the Rain (live)
TTITLE6=Chaka Khan - Tell Me Something Good (live)
TTITLE7=The Commodores - Just to Be Close to You (live)
TTITLE8=Donny Hathaway - A Song for You (live)
TTITLE9=The O'Jays - Wildflower (live)
TTITLE10=Teddy Pendergrass - Turn Off the Lights (live)
TTITLE11=Marvin Gaye - Let's Get it On (live)
EXTD=
EXTT0=
EXTT1=
EXTT2=
EXTT3=
EXTT4=
EXTT5=
EXTT6=
EXTT7=
EXTT8=
EXTT9=
EXTT10=
EXTT11=
PLAYORDER=
